<svg width="256" height="256" viewBox="0 0 256 256" fill="none" xmlns="http://www.w3.org/2000/svg">
<g clip-path="url(#clip0)">
<rect width="256" height="256" fill="#163036"/>
<path d="M133.8 152.4C133.8 193.2 120.2 223.333 93 242.8C66.0667 262.267 30.0667 272 -15 272C-60.0667 272 -96.2 262.267 -123.4 242.8C-150.333 223.333 -163.8 192.933 -163.8 151.6V104.4C-163.8 77.2 -157.4 54.6667 -144.6 36.8C-131.533 18.6667 -113.8 5.33332 -91.4 -3.20001C-69 -11.7333 -43.5333 -16 -15 -16C13.5333 -16 38.8667 -11.7333 61 -3.20001C83.4 5.33332 101.133 18.5333 114.2 36.4C127.267 54.2667 133.8 76.6667 133.8 103.6V152.4ZM-55.8 160C-55.8 170.933 -52.2 179.333 -45 185.2C-37.5333 191.067 -27.5333 194 -15 194C-2.46666 194 7.40001 191.067 14.6 185.2C22.0667 179.067 25.8 170.533 25.8 159.6V96.4C25.8 85.4667 22.0667 77.0667 14.6 71.2C7.40001 65.0667 -2.46666 62 -15 62C-27.5333 62 -37.5333 64.9333 -45 70.8C-52.2 76.6667 -55.8 85.0667 -55.8 96V160ZM413.244 254.8C414.044 255.6 414.444 256.667 414.444 258C414.444 260.667 413.51 263.067 411.644 265.2C410.044 267.067 408.044 268 405.644 268H319.644C312.444 268 306.977 264.933 303.244 258.8L264.444 199.2L226.444 258.8C222.444 264.933 216.977 268 210.044 268H123.644C121.244 268 119.11 267.2 117.244 265.6C115.644 263.733 114.844 261.6 114.844 259.2V258C114.844 256.667 115.244 255.6 116.044 254.8L204.444 119.6L125.644 1.19998C124.844 0.133325 124.444 -1.33334 124.444 -3.20001C124.444 -5.60001 125.244 -7.60001 126.844 -9.20001C128.71 -11.0667 130.844 -12 133.244 -12H219.644C226.577 -12 232.177 -8.66668 236.444 -2L267.644 49.2L301.244 -2.80002C303.11 -5.20002 305.11 -7.33335 307.244 -9.20001C309.644 -11.0667 313.11 -12 317.644 -12H403.644C406.044 -12 408.044 -11.0667 409.644 -9.20001C411.51 -7.60001 412.444 -5.60001 412.444 -3.20001V-2C412.444 -0.666673 412.044 0.399988 411.244 1.19998L327.644 124.8L413.244 254.8Z" fill="url(#paint0_linear)" fill-opacity="0.5"/>
<path d="M130.655 139.765C130.655 151.495 126.745 160.158 118.925 165.755C111.182 171.352 100.832 174.15 87.875 174.15C74.9183 174.15 64.53 171.352 56.71 165.755C48.9667 160.158 45.095 151.418 45.095 139.535V125.965C45.095 118.145 46.935 111.667 50.615 106.53C54.3717 101.317 59.47 97.4833 65.91 95.03C72.35 92.5767 79.6717 91.35 87.875 91.35C96.0783 91.35 103.362 92.5767 109.725 95.03C116.165 97.4833 121.263 101.278 125.02 106.415C128.777 111.552 130.655 117.992 130.655 125.735V139.765ZM76.145 141.95C76.145 145.093 77.18 147.508 79.25 149.195C81.3967 150.882 84.2717 151.725 87.875 151.725C91.4783 151.725 94.315 150.882 96.385 149.195C98.5317 147.432 99.605 144.978 99.605 141.835V123.665C99.605 120.522 98.5317 118.107 96.385 116.42C94.315 114.657 91.4783 113.775 87.875 113.775C84.2717 113.775 81.3967 114.618 79.25 116.305C77.18 117.992 76.145 120.407 76.145 123.55V141.95ZM210.995 169.205C211.225 169.435 211.34 169.742 211.34 170.125C211.34 170.892 211.072 171.582 210.535 172.195C210.075 172.732 209.5 173 208.81 173H184.085C182.015 173 180.443 172.118 179.37 170.355L168.215 153.22L157.29 170.355C156.14 172.118 154.568 173 152.575 173H127.735C127.045 173 126.432 172.77 125.895 172.31C125.435 171.773 125.205 171.16 125.205 170.47V170.125C125.205 169.742 125.32 169.435 125.55 169.205L150.965 130.335L128.31 96.295C128.08 95.9883 127.965 95.5667 127.965 95.03C127.965 94.34 128.195 93.765 128.655 93.305C129.192 92.7683 129.805 92.5 130.495 92.5H155.335C157.328 92.5 158.938 93.4583 160.165 95.375L169.135 110.095L178.795 95.145C179.332 94.455 179.907 93.8417 180.52 93.305C181.21 92.7683 182.207 92.5 183.51 92.5H208.235C208.925 92.5 209.5 92.7683 209.96 93.305C210.497 93.765 210.765 94.34 210.765 95.03V95.375C210.765 95.7583 210.65 96.065 210.42 96.295L186.385 131.83L210.995 169.205Z" fill="#24ED8F"/>
</g>
<defs>
<linearGradient id="paint0_linear" x1="125" y1="-105" x2="125" y2="390" gradientUnits="userSpaceOnUse">
<stop stop-color="#24ED8F"/>
<stop offset="1" stop-color="#24ED8F" stop-opacity="0"/>
</linearGradient>
<clipPath id="clip0">
<rect width="256" height="256" fill="white"/>
</clipPath>
</defs>
</svg>
